<?xml version="1.0" standalone="no"?><!DOCTYPE svg PUBLIC "-//W3C//DTD SVG 1.1//EN" "http://www.w3.org/Graphics/SVG/1.1/DTD/svg11.dtd"><svg t="1609859696831" class="icon" viewBox="0 0 1024 1024" version="1.1" xmlns="http://www.w3.org/2000/svg" p-id="9313" xmlns:xlink="http://www.w3.org/1999/xlink" width="200" height="200"><defs><style type="text/css"></style></defs><path d="M516.1 779.7c-50.5 0-95.9-5.2-131.3-15.1-89-25-100.2-76.6-109.1-118.1-4.9-22.8-9.2-42.5-25.8-58.7-1.1-1.1-2.2-2.3-3.1-3.6-3.1-4.3-74.5-105.5-42.8-189.9 16.7-44.5 57.2-74.5 120.2-89.3 2.1-0.8 12.2-6.4 20.2-10.8 33.8-18.7 90.5-49.9 141.7-49.9 17.1 0 32.6 3.4 46.1 10.2 14.2 7.1 27.1 13.7 39.1 19.9 54.5 28 87.5 44.9 130.8 48.6 49.5 4.2 103.5 44.7 120.3 90.2 10.9 29.4 5.1 58.5-15.8 79.9-37 37.7-23.6 112.3-12.8 172.3 2 11.3 1.4 28.4-13.3 46-39 46.9-164.5 68.3-264.4 68.3z" fill="#FFFFFF" p-id="9314"></path><path d="M486.2 270.9c12.2 0 23.8 2.2 34.2 7.4 79.8 39.9 120.6 66.2 179.6 71.2s132.2 79.6 87.8 124.9c-45.8 46.7-32.2 127.6-20 195.7 9 49.8-127.4 83-251.8 83-45.5 0-89.4-4.4-124.1-14.2-120.3-33.7-65.9-114.2-123.6-170.2 0 0-137-191.3 61.9-237.8 16.9-3.9 94.1-60 156-60m0-53.2c-58.1 0-118.5 33.3-154.5 53.2-5.9 3.3-13.1 7.2-16.7 9-87.6 21.4-122.3 68.8-135.9 105-36.1 95.9 37.5 202.9 46.1 214.8 1.8 2.6 3.9 5 6.2 7.2 10.4 10.1 13.4 22.4 18.3 45.2 9.3 43.3 23.5 108.8 127.9 138.1 47.5 13.3 101.5 16.1 138.4 16.1 22.5 0 221.8-2.2 285.1-77.9 16.6-19.8 23.3-43.9 19.1-67.7-9.2-51.1-21.8-121.1 5.6-149 28.5-29 36.4-68.3 21.8-107.8-20.4-55.1-83.2-102.3-143-107.4-38.1-3.3-67.5-18.4-120.9-45.8-12.1-6.2-25.1-12.9-39.4-20-17.4-8.6-36.9-13-58.1-13z" fill="#262626" p-id="9315"></path><path d="M503.5 639.8c-73.8 0-133.8-60-133.8-133.8s60-133.9 133.8-133.9c73.8 0 133.8 60 133.8 133.9s-60 133.8-133.8 133.8z" fill="#F9DA41" p-id="9316"></path><path d="M503.5 398.8c59.2 0 107.2 48 107.2 107.2s-48 107.2-107.2 107.2-107.2-48-107.2-107.2 48-107.2 107.2-107.2m0-53.2c-88.5 0-160.5 72-160.5 160.5s72 160.5 160.5 160.5S664 594.5 664 506s-72-160.4-160.5-160.4z" fill="#262626" p-id="9317"></path><path d="M578.8 525.3c-8.8 0-16-7.1-16-16 0-42.5-31.7-54.2-33.1-54.7-8.3-2.9-12.7-11.9-9.9-20.2 2.8-8.3 11.7-12.8 20-10 2.2 0.7 54.9 18.8 54.9 84.9 0.1 8.8-7.1 16-15.9 16z" fill="#FFFFFF" p-id="9318"></path><path d="M495.2 426.7m-16.1 0a16.1 16.1 0 1 0 32.2 0 16.1 16.1 0 1 0-32.2 0Z" fill="#FFFFFF" p-id="9319"></path><path d="M442.4 547.7m-10.1 0a10.1 10.1 0 1 0 20.2 0 10.1 10.1 0 1 0-20.2 0Z" fill="#FFBC45" p-id="9320"></path><path d="M484.7 576m-7.2 0a7.2 7.2 0 1 0 14.4 0 7.2 7.2 0 1 0-14.4 0Z" fill="#FFBC45" p-id="9321"></path><path d="M449.7 576m-7.2 0a7.2 7.2 0 1 0 14.4 0 7.2 7.2 0 1 0-14.4 0Z" fill="#FFBC45" p-id="9322"></path></svg>